# xmcd CD database file
# Copyright (C) 1995-1998 Ti Kan
#
# Track frame offsets:
#	187
#	11217
#	24525
#	38770
#	52192
#	62117
#	71965
#	86892
#	97525
#	113840
#	124920
#	134580
#	150260
#	160615
#	172360
#	182347
#	196782
#	207142
#	218990
#	228570
#
# Disc length: 3175 seconds
#
# Revision: 1
# Processed by: cddbd v1.4b41PL1 Copyright (c) Steve Scherf et al.
# Submitted via: CDex 1.30Release
#
DISCID=1a0c6514
DTITLE=Monroe Brothers - Collection (1936-'38) 1
DYEAR=1997
DGENRE=Country
TTITLE0=My Long Journey Home
TTITLE1=What Is Home Without Love
TTITLE2=What Would You Give In Exchange
TTITLE3=Little Red Shoes
TTITLE4=Nine Pound Hammer Is Too Heavy
TTITLE5=On Some Foggy Mountain Top
TTITLE6=Drifting Too Far From the Shore
TTITLE7=In My Dear Old Southern Home
TTITLE8=New River Train
TTITLE9=This World Is Not My Home
TTITLE10=Watermelon Hanging On The Vine
TTITLE11=On The Banks Of The Ohio
TTITLE12=Do You Call That Religion
TTITLE13=God Holds The Future In His Hands
TTITLE14=You've Got To Walk That Lonesome Valley
TTITLE15=Six Months Ain't Long
TTITLE16=Just A Song Of Old Kentucky
TTITLE17=Don't Forget Me
TTITLE18=I'm Going
TTITLE19=Darling Corey
EXTD=YEAR: 1997 ID3G:   2
EXTT0=
EXTT1=
EXTT2=
EXTT3=
EXTT4=
EXTT5=
EXTT6=
EXTT7=
EXTT8=
EXTT9=
EXTT10=
EXTT11=
EXTT12=
EXTT13=
EXTT14=
EXTT15=
EXTT16=
EXTT17=
EXTT18=
EXTT19=
PLAYORDER=
